<?xml version="1.0" standalone="no"?>
<!DOCTYPE svg PUBLIC "-//W3C//DTD SVG 20010904//EN"
 "http://www.w3.org/TR/2001/REC-SVG-20010904/DTD/svg10.dtd">
<svg version="1.0" xmlns="http://www.w3.org/2000/svg"
 width="2696.000000pt" height="461.000000pt" viewBox="0 0 2696.000000 461.000000"
 preserveAspectRatio="xMidYMid meet">

<g transform="translate(0.000000,461.000000) scale(0.100000,-0.100000)"
fill="#000000" stroke="none">
<path d="M54 4596 c-20 -9 -35 -25 -43 -46 -16 -46 -16 -3633 0 -3679 19 -53
48 -61 227 -61 165 0 215 9 232 40 6 12 10 321 10 832 0 873 0 860 51 866 22
3 106 -94 740 -852 477 -571 725 -860 747 -871 28 -14 66 -16 266 -13 232 3
235 3 260 27 42 39 36 85 -18 141 -50 52 -1509 1710 -1544 1754 -12 16 -22 39
-22 52 0 17 191 237 673 776 370 414 707 792 750 840 86 98 95 126 53 175
l-24 28 -199 3 c-149 3 -207 0 -230 -10 -21 -9 -210 -224 -584 -663 -887
-1043 -837 -987 -867 -983 -53 6 -52 -7 -52 826 0 485 -4 780 -10 792 -5 10
-24 23 -41 29 -47 16 -336 14 -375 -3z"/>
<path d="M4640 4597 c-14 -7 -33 -28 -42 -47 -17 -33 -18 -142 -18 -1845 0
-1791 0 -1810 20 -1843 11 -18 32 -37 47 -43 17 -6 95 -9 195 -7 160 3 167 4
192 27 l26 24 2 1469 c3 1293 5 1470 18 1478 49 32 14 82 1017 -1475 660
-1025 963 -1487 985 -1503 32 -23 36 -23 274 -20 241 3 243 3 268 27 l26 24 0
1847 0 1847 -26 24 c-25 23 -32 24 -187 27 -100 2 -176 -1 -199 -8 -73 -21
-68 92 -68 -1503 0 -1101 -3 -1436 -12 -1445 -7 -7 -24 -12 -38 -12 -23 0 -37
17 -103 118 -42 64 -467 725 -945 1467 -726 1127 -875 1353 -903 1367 -30 16
-65 18 -269 18 -168 0 -242 -4 -260 -13z"/>
<path d="M11102 4597 c-12 -7 -28 -22 -36 -33 -8 -11 -280 -717 -606 -1569
-325 -853 -639 -1673 -697 -1824 -97 -252 -104 -275 -92 -302 21 -53 49 -59
251 -59 161 0 187 2 214 19 28 17 40 48 172 427 78 225 152 428 164 452 25 51
82 102 145 132 44 20 56 21 693 21 621 0 651 -1 692 -19 60 -27 121 -83 146
-134 12 -24 88 -221 169 -438 101 -270 156 -405 175 -425 l26 -30 205 0 c204
0 206 0 231 24 27 26 34 68 16 99 -6 9 -323 829 -705 1821 -419 1091 -702
1812 -715 1825 -19 20 -32 21 -223 23 -150 2 -208 0 -225 -10z m234 -635 c6
-4 132 -349 279 -767 147 -418 276 -782 286 -809 13 -35 15 -54 8 -67 -9 -18
-35 -19 -592 -19 -613 0 -607 0 -607 44 -1 30 540 1566 562 1599 19 27 42 34
64 19z"/>
<path d="M15037 4594 c-15 -8 -32 -26 -37 -40 -13 -34 -13 -3654 0 -3688 19
-50 54 -58 247 -54 l175 3 24 28 24 28 0 747 c0 660 2 750 16 770 15 22 16 22
318 22 351 0 364 -3 451 -82 30 -28 55 -56 55 -63 0 -7 190 -331 421 -720 332
-556 428 -709 451 -721 24 -12 66 -15 234 -12 l206 3 24 28 c29 34 31 75 6
108 -11 13 -213 334 -450 712 -310 493 -436 703 -448 743 -32 112 2 214 111
335 95 105 147 181 199 290 153 319 150 653 -8 974 -142 286 -389 485 -714
573 l-97 26 -590 3 c-518 3 -593 1 -618 -13z m1198 -439 c222 -56 403 -227
477 -450 19 -58 23 -91 23 -195 0 -104 -4 -137 -23 -195 -58 -174 -181 -319
-333 -394 -145 -71 -170 -74 -547 -75 -319 -1 -334 0 -348 18 -12 17 -14 120
-14 644 0 410 4 630 10 643 10 18 25 19 353 19 273 0 355 -3 402 -15z"/>
<path d="M21096 4598 c-238 -22 -434 -84 -645 -205 -170 -98 -319 -224 -447
-375 -216 -258 -362 -569 -431 -918 -24 -121 -26 -159 -27 -365 -1 -257 12
-375 65 -575 57 -213 139 -395 265 -585 172 -259 402 -467 664 -600 156 -79
400 -147 574 -160 190 -14 294 -92 343 -259 25 -83 89 -207 144 -274 63 -79
204 -184 289 -217 157 -60 162 -60 693 -60 477 0 489 0 503 20 12 16 14 55 12
207 -2 102 -7 190 -11 195 -5 4 -225 10 -490 14 -439 5 -486 7 -532 24 -70 26
-146 104 -174 180 -43 114 -14 263 66 336 15 14 70 55 122 89 99 68 240 189
332 286 125 133 309 446 375 639 75 215 124 499 124 712 0 126 -31 374 -65
511 -66 271 -207 549 -401 793 -63 80 -254 252 -356 322 -89 61 -285 157 -389
191 -192 62 -423 90 -603 74z m375 -532 c456 -116 817 -547 910 -1086 42 -244
20 -550 -55 -775 -147 -437 -456 -749 -845 -852 -132 -36 -352 -38 -482 -6
-457 115 -804 508 -921 1047 -19 87 -22 131 -22 321 0 248 13 333 80 526 149
429 484 752 864 833 113 24 126 25 255 21 85 -3 148 -11 216 -29z"/>
<path d="M24699 423 c-10 -12 -15 -62 -17 -194 l-3 -179 25 -25 25 -25 1089 0
c1023 0 1091 1 1111 18 21 16 22 24 22 205 0 130 -4 193 -12 203 -10 12 -178
14 -1119 14 -1017 0 -1109 -1 -1121 -17z"/>
</g>
</svg>
