<?xml version="1.0" standalone="no"?>
<!DOCTYPE svg PUBLIC "-//W3C//DTD SVG 20010904//EN"
 "http://www.w3.org/TR/2001/REC-SVG-20010904/DTD/svg10.dtd">
<svg version="1.0" xmlns="http://www.w3.org/2000/svg"
 width="2000.000000pt" height="2000.000000pt" viewBox="0 0 2000.000000 2000.000000"
 preserveAspectRatio="xMidYMid meet">

<g transform="translate(0.000000,2000.000000) scale(0.100000,-0.100000)"
fill="#000000" stroke="none">
<path d="M4225 14630 c-166 -14 -348 -39 -358 -49 -5 -5 -7 -40 -5 -77 l3 -69
105 -2 c219 -5 449 -23 560 -43 341 -62 668 -168 935 -303 400 -203 711 -449
1034 -819 l33 -38 -691 0 -692 0 3 -77 3 -78 235 -6 c258 -6 297 -13 383 -70
75 -50 136 -119 174 -197 30 -63 36 -89 44 -185 6 -67 9 -1433 7 -3387 l-3
-3275 -22 -57 c-62 -164 -186 -279 -344 -318 -24 -6 -142 -14 -261 -17 l-218
-6 0 -73 0 -74 1798 2 1797 3 0 70 0 70 -235 6 c-202 6 -244 10 -302 28 -167
54 -296 198 -327 367 -14 73 -15 2654 -2 2654 5 0 137 -138 293 -307 1749
-1894 1734 -1878 1913 -2030 215 -182 558 -408 770 -508 33 -15 83 -39 110
-52 238 -116 661 -248 954 -298 223 -37 509 -65 684 -65 141 0 395 22 585 52
l73 11 -3 76 -3 76 -235 6 c-356 10 -583 49 -930 161 -219 71 -428 167 -645
296 -148 87 -209 129 -350 241 -197 156 -141 97 -1200 1246 -335 363 -656 712
-715 775 -59 63 -151 164 -206 225 -54 60 -135 148 -180 195 -45 47 -110 116
-145 155 -61 66 -126 136 -284 305 -180 193 -370 402 -373 411 -4 10 19 39
258 334 535 659 622 765 630 765 10 0 40 -32 315 -330 109 -118 413 -447 674
-730 262 -282 613 -663 780 -845 168 -181 307 -332 311 -335 3 -3 190 -205
415 -450 225 -245 415 -449 421 -455 19 -18 694 -752 830 -904 153 -171 243
-258 414 -401 371 -312 793 -543 1270 -698 539 -175 1174 -226 1718 -137 48 8
91 15 95 15 4 0 7 35 5 77 l-3 78 -179 2 c-514 7 -1001 129 -1451 362 -182 95
-282 157 -442 275 l-123 90 0 3191 c0 3108 1 3192 19 3253 11 34 30 81 44 105
50 84 165 173 272 210 16 6 160 13 319 16 l290 6 -2 70 c0 39 -1 73 -2 78 0 4
-539 6 -1197 5 l-1198 -3 0 -75 0 -75 295 -5 c317 -6 342 -10 435 -64 116 -68
207 -209 225 -347 11 -90 14 -5819 2 -5819 -9 0 0 -9 -282 300 -118 129 -268
293 -334 365 -67 71 -125 135 -131 141 -5 6 -51 55 -101 110 -50 54 -171 187
-269 294 -98 107 -227 247 -285 310 -59 63 -239 259 -400 435 -161 176 -296
322 -300 325 -6 5 -448 485 -1638 1778 -237 258 -340 377 -334 385 5 7 79 98
164 202 197 242 743 918 957 1185 194 242 211 261 276 309 117 86 147 90 588
91 l367 0 0 80 0 80 -1197 -2 -1198 -3 -3 -69 c-2 -49 1 -72 10 -77 7 -5 79
-9 160 -9 126 0 156 -3 204 -21 62 -24 120 -76 151 -137 25 -50 25 -182 0
-233 -27 -54 -818 -1030 -833 -1027 -7 2 -43 37 -81 79 -95 106 -405 445 -764
835 -870 945 -917 995 -1119 1164 -36 30 -67 57 -70 60 -14 14 -196 146 -266
191 -533 349 -1117 562 -1739 635 -153 18 -597 26 -740 14z m2857 -1990 c129
-140 249 -271 266 -290 l32 -34 0 -1344 0 -1344 -121 -151 c-67 -84 -136 -166
-152 -184 l-30 -32 151 -153 152 -153 0 -1485 c0 -1416 -1 -1489 -19 -1552
-35 -128 -124 -239 -236 -295 -64 -33 -92 -32 -163 8 -109 63 -201 186 -222
299 -15 79 -14 6712 1 6782 16 74 79 194 98 186 4 -2 113 -118 243 -258z m860
-937 c29 -31 60 -64 68 -73 218 -231 516 -556 518 -566 2 -8 -61 -94 -140
-191 -79 -98 -224 -277 -322 -398 -98 -121 -182 -221 -187 -223 -5 -2 -9 314
-9 758 0 504 3 759 10 755 5 -3 34 -31 62 -62z"/>
</g>
</svg>
